<?xml version="1.0" standalone="no"?>
<!DOCTYPE svg PUBLIC "-//W3C//DTD SVG 20010904//EN"
 "http://www.w3.org/TR/2001/REC-SVG-20010904/DTD/svg10.dtd">
<svg version="1.0" xmlns="http://www.w3.org/2000/svg"
 width="486.000000pt" height="674.000000pt" viewBox="0 0 486.000000 674.000000"
 preserveAspectRatio="xMidYMid meet">

<g transform="translate(0.000000,674.000000) scale(0.100000,-0.100000)"
fill="#008bfa" stroke="none">
<path fill="#e6007f" d="M2418 6616 c-52 -19 -82 -40 -112 -79 -57 -75 -56 -59 -56 -816 l0
-696 24 -51 c28 -60 95 -120 150 -135 141 -38 280 49 306 193 7 37 10 295 8
735 -3 760 1 715 -78 792 -65 63 -161 86 -242 57z"/>
<path fill="#cd0095" d="M1735 6501 c-82 -21 -152 -79 -182 -148 -10 -26 -13 -194 -13 -900 0
-852 1 -869 21 -913 53 -117 164 -170 283 -136 66 19 126 69 159 130 l22 41 0
865 c0 953 3 909 -63 982 -60 66 -152 98 -227 79z"/>
<path fill="#f70069" d="M3099 6413 c-68 -35 -114 -94 -129 -168 -7 -36 -10 -150 -8 -332 3
-262 4 -280 24 -318 48 -89 128 -138 224 -138 70 0 118 21 169 73 69 71 73 96
69 437 -3 283 -4 300 -25 338 -65 122 -205 168 -324 108z"/>
<path fill="#ad13a6" d="M1021 5939 c-71 -14 -137 -64 -174 -134 -22 -40 -22 -47 -25 -659 -2
-426 1 -635 8 -672 16 -78 63 -142 130 -177 48 -25 63 -28 120 -24 74 5 113
22 160 69 73 72 70 39 70 763 0 608 -2 653 -19 690 -50 111 -155 167 -270 144z"/>
<path fill="#ff0051" d="M3835 5930 c-48 -15 -106 -70 -131 -124 -23 -50 -24 -56 -24 -361 0
-352 2 -361 80 -428 56 -47 97 -60 180 -55 57 3 76 9 112 35 24 17 57 52 73
78 l30 48 0 327 0 327 -30 49 c-44 71 -109 108 -194 111 -36 1 -79 -2 -96 -7z"/>
<path fill="#6f52d3" d="M3147 5249 c-86 -21 -157 -98 -177 -192 -7 -36 -10 -361 -8 -1042 3
-1121 -3 -1037 85 -1115 51 -45 94 -60 168 -60 87 1 163 49 209 135 l21 40 3
1014 c2 918 1 1019 -14 1064 -38 113 -170 185 -287 156z"/>
<path fill="#8e37bb" d="M3836 4745 c-56 -20 -107 -65 -136 -121 l-25 -48 0 -651 0 -650 23
-47 c13 -26 41 -63 62 -82 114 -103 308 -63 378 77 l23 45 -3 664 c-3 735 1
687 -70 758 -64 64 -165 86 -252 55z"/>
<path fill="#3669e8" d="M2443 4629 c-83 -15 -158 -87 -183 -174 -8 -29 -10 -297 -8 -960 l3
-920 28 -48 c98 -167 326 -165 421 4 l31 54 0 935 0 935 -21 40 c-56 103 -160
155 -271 134z"/>
<path fill="#028bfb" d="M1701 4187 c-53 -20 -111 -76 -137 -131 l-24 -51 0 -580 0 -580 24
-50 c73 -157 273 -189 393 -63 65 67 63 47 63 695 0 548 -2 591 -19 628 -22
50 -68 96 -118 120 -47 23 -137 29 -182 12z"/>
</g>
</svg>
